<?xml version="1.0" standalone="no"?>
<!DOCTYPE svg PUBLIC "-//W3C//DTD SVG 20010904//EN"
 "http://www.w3.org/TR/2001/REC-SVG-20010904/DTD/svg10.dtd">
<svg version="1.0" xmlns="http://www.w3.org/2000/svg"
 width="300.000000pt" height="385.000000pt" viewBox="0 0 300.000000 385.000000"
 preserveAspectRatio="xMidYMid meet">
<metadata>
Created by potrace 1.10, written by Peter Selinger 2001-2011
</metadata>
<g transform="translate(0.000000,385.000000) scale(0.100000,-0.100000)"
fill="#000000" stroke="none">
<path d="M387 3736 c-95 -34 -116 -85 -117 -274 l0 -143 63 3 c34 1 68 -1 75
-6 26 -16 -1 -26 -69 -26 l-69 0 0 -95 0 -95 69 0 c64 0 93 -11 77 -28 -4 -3
-38 -5 -76 -4 l-70 2 0 -94 0 -95 73 -3 c56 -2 72 -6 72 -18 0 -12 -15 -15
-70 -16 l-70 -1 -3 -91 -3 -91 73 -3 c57 -2 73 -6 73 -18 0 -12 -16 -16 -72
-18 l-73 -3 0 -89 0 -89 73 -3 c56 -2 72 -6 72 -18 0 -12 -16 -16 -72 -18
l-73 -3 0 -89 0 -89 73 -3 c56 -2 72 -6 72 -18 0 -12 -16 -16 -72 -18 l-73 -3
0 -94 0 -93 63 3 c66 4 95 -5 83 -24 -4 -6 -36 -11 -77 -11 l-69 0 0 -95 0
-95 63 4 c71 3 87 0 87 -20 0 -11 -18 -14 -75 -14 l-75 0 0 -95 0 -94 73 -3
c56 -2 72 -6 72 -18 0 -12 -13 -14 -72 -12 l-73 3 0 -95 0 -95 73 -3 c56 -2
72 -6 72 -18 0 -12 -14 -15 -72 -14 l-73 0 0 -92 0 -93 73 -3 c56 -2 72 -6 72
-18 0 -12 -16 -16 -72 -18 l-73 -3 0 -89 0 -89 73 -3 c56 -2 72 -6 72 -18 0
-12 -16 -16 -72 -18 l-73 -3 0 -89 0 -89 73 -3 c56 -2 72 -6 72 -18 0 -12 -16
-16 -73 -18 l-73 -3 3 -153 c3 -146 4 -154 30 -193 52 -79 -42 -73 1241 -73
l1144 0 41 30 c77 56 71 -99 74 1736 l3 1649 -23 37 c-13 20 -40 47 -60 60
l-37 23 -1130 2 c-936 2 -1137 0 -1168 -11z m2291 -36 c49 -14 89 -58 101
-111 17 -75 13 -3214 -4 -3263 -15 -43 -42 -71 -81 -86 -37 -15 -2253 -14
-2291 1 -36 13 -61 36 -80 72 -16 32 -20 264 -4 280 5 5 26 9 48 9 41 0 73 21
73 48 0 25 -21 40 -55 40 -68 0 -75 7 -75 70 0 63 11 74 67 64 15 -3 33 2 44
12 39 35 14 78 -44 76 -61 -2 -67 4 -67 68 0 64 6 70 69 70 40 0 61 14 61 40
0 25 -35 53 -58 46 -11 -4 -31 -2 -46 3 -24 10 -26 15 -26 65 0 60 6 66 69 66
40 0 61 14 61 41 0 31 -30 51 -65 45 -46 -9 -67 11 -67 65 -1 60 6 69 53 69
50 0 79 15 79 40 0 30 -27 49 -69 48 -22 0 -44 3 -50 6 -6 4 -11 32 -11 61 0
62 17 79 68 69 32 -7 62 15 62 45 0 28 -20 39 -75 43 l-50 3 -3 58 c-3 54 -2
58 24 67 15 6 35 8 46 4 23 -7 58 21 58 46 0 26 -21 40 -61 40 -63 0 -69 6
-69 70 0 57 1 59 30 65 16 4 34 4 40 0 16 -10 60 22 60 43 0 29 -21 42 -71 42
-54 0 -59 7 -59 80 0 53 8 60 69 60 40 0 61 14 61 41 0 23 -36 48 -60 42 -11
-3 -31 -2 -45 1 -23 6 -25 11 -25 65 0 65 5 71 69 71 20 0 42 5 49 12 33 33
-6 82 -56 72 -47 -9 -62 8 -62 71 0 59 7 65 69 65 20 0 42 5 49 12 32 32 -3
83 -50 74 -51 -10 -68 7 -68 69 0 62 17 79 69 69 37 -8 61 9 61 42 0 28 -33
48 -66 40 -44 -11 -64 9 -64 64 0 60 20 84 61 75 37 -8 69 10 69 39 0 34 -24
49 -63 42 -60 -11 -67 3 -68 142 0 126 1 130 44 184 8 10 25 22 38 27 32 13
2242 14 2287 1z"/>
<path d="M1968 2468 c-37 -16 -43 -17 -58 -3 -19 18 -159 21 -190 5 -13 -7
-21 -7 -25 0 -11 17 -207 13 -233 -5 -19 -14 -24 -14 -51 0 -17 8 -52 15 -78
15 -39 0 -56 -6 -83 -29 l-35 -29 -25 30 -25 30 -25 -20 c-17 -14 -25 -33 -29
-66 l-6 -47 -39 51 c-22 29 -50 59 -63 67 -22 15 -25 14 -48 -7 -24 -23 -25
-29 -25 -150 0 -113 2 -128 20 -148 17 -17 25 -20 40 -12 26 14 31 24 38 77
l7 46 27 -40 c33 -50 75 -93 90 -93 7 0 24 12 39 26 l28 27 31 -27 c25 -20 42
-26 80 -26 66 0 91 13 124 66 25 39 27 51 24 114 -4 71 -3 71 22 68 25 -3 25
-5 30 -110 4 -92 8 -109 25 -122 26 -20 29 -20 51 5 15 17 20 41 24 122 l5
102 28 3 27 3 0 -100 c0 -91 2 -102 24 -128 23 -26 27 -27 102 -24 44 1 86 8
97 16 15 11 23 11 45 -1 31 -16 109 -18 146 -4 56 21 75 99 38 150 l-21 28 20
27 c19 23 20 29 9 56 -27 64 -109 90 -182 57z m-898 -135 c85 -131 85 -131 78
25 -3 78 -2 92 12 92 13 0 15 -20 15 -140 0 -118 -2 -140 -15 -140 -9 0 -51
53 -94 118 l-78 117 4 -118 c3 -106 1 -117 -14 -117 -16 0 -18 13 -18 140 0
181 7 183 110 23z m333 96 c55 -43 61 -177 11 -230 -34 -36 -73 -44 -117 -25
-47 19 -67 60 -67 136 0 64 18 112 47 129 31 18 98 13 126 -10z m287 5 c0 -12
-10 -15 -47 -13 l-46 3 2 -127 c2 -124 2 -127 -19 -127 -21 0 -21 3 -19 127
l2 127 -46 -3 c-37 -2 -47 1 -47 13 0 14 17 16 110 16 93 0 110 -2 110 -16z
m217 4 c-2 -9 -27 -13 -75 -13 l-72 0 0 -50 0 -50 62 0 c40 0 63 -4 65 -12 4
-10 -13 -13 -61 -13 l-66 0 0 -55 0 -55 75 0 c43 0 75 -4 75 -10 0 -6 -37 -10
-90 -10 l-90 0 0 140 0 140 91 0 c68 0 90 -3 86 -12z m184 2 c21 -12 51 -64
42 -74 -13 -13 -33 -5 -33 13 0 22 -35 51 -62 51 -37 0 -68 -23 -68 -50 0 -22
7 -30 43 -44 101 -42 107 -46 113 -71 11 -44 -4 -75 -43 -91 -64 -27 -153 9
-153 62 0 32 16 30 34 -5 17 -31 34 -41 72 -41 41 0 64 18 64 49 0 23 -7 31
-37 44 -21 9 -47 18 -59 22 -96 26 -77 145 23 145 25 0 53 -5 64 -10z m-184
-79 c3 -20 0 -22 -19 -16 -13 4 -38 9 -55 12 -20 3 -33 11 -33 20 0 11 12 13
52 11 45 -3 52 -6 55 -27z m158 9 c14 -15 15 -20 4 -20 -15 1 -49 23 -49 34 0
13 28 5 45 -14z m-126 -64 c19 -23 -41 -79 -87 -81 -46 -2 -62 3 -62 20 0 16
22 25 61 25 19 0 34 8 45 25 19 29 27 31 43 11z m98 -47 c14 -5 21 -14 17 -23
-7 -18 -29 -11 -68 21 l-29 24 29 -7 c16 -4 39 -11 51 -15z"/>
<path d="M1305 2418 c-37 -20 -45 -40 -45 -110 0 -60 3 -72 25 -93 32 -33 74
-33 106 1 21 22 24 35 24 96 0 64 -2 72 -28 94 -31 26 -51 29 -82 12z m64 -46
c16 -31 19 -86 4 -114 -16 -32 -49 -37 -69 -10 -19 25 -18 101 3 124 21 23 50
23 62 0z"/>
<path d="M963 1959 c-10 -4 250 -7 577 -7 336 0 580 4 560 8 -42 10 -1111 9
-1137 -1z"/>
<path d="M1242 1913 c164 -2 432 -2 595 0 164 1 30 2 -297 2 -327 0 -461 -1
-298 -2z"/>
<path d="M952 1735 c6 -6 1139 -7 1146 0 3 3 -255 5 -573 5 -318 0 -576 -2
-573 -5z"/>
<path d="M962 1695 c7 -7 1149 -7 1156 0 3 3 -257 5 -578 5 -321 0 -581 -2
-578 -5z"/>
<path d="M945 1510 c-4 -7 197 -10 595 -10 398 0 599 3 595 10 -4 6 -213 10
-595 10 -382 0 -591 -4 -595 -10z"/>
<path d="M960 1470 c20 -13 1157 -13 1165 0 4 6 -212 10 -587 10 -385 0 -588
-4 -578 -10z"/>
<path d="M126 3305 c-4 -12 4 -15 44 -15 38 0 50 4 50 15 0 11 -12 15 -44 15
-30 0 -46 -5 -50 -15z"/>
<path d="M130 3085 c0 -11 12 -15 45 -15 33 0 45 4 45 15 0 11 -12 15 -45 15
-33 0 -45 -4 -45 -15z"/>
<path d="M135 2869 c-4 -6 -4 -13 -1 -17 8 -7 75 -6 83 1 12 13 -11 27 -42 27
-19 0 -37 -5 -40 -11z"/>
<path d="M135 2649 c-10 -16 2 -23 40 -23 19 0 37 3 41 6 13 14 -8 28 -41 28
-19 0 -37 -5 -40 -11z"/>
<path d="M134 2429 c-3 -6 0 -15 7 -20 30 -19 89 -3 75 20 -4 6 -22 11 -41 11
-19 0 -37 -5 -41 -11z"/>
<path d="M143 2214 c-7 -3 -9 -12 -6 -20 6 -17 69 -19 79 -3 13 21 -38 37 -73
23z"/>
<path d="M133 1978 c2 -8 20 -13 42 -13 22 0 40 5 43 13 2 8 -10 12 -43 12
-33 0 -45 -4 -42 -12z"/>
<path d="M132 1758 c5 -15 77 -18 81 -3 1 6 -18 11 -42 13 -32 2 -42 0 -39
-10z"/>
<path d="M136 1535 c-4 -12 3 -15 34 -15 29 0 40 4 40 15 0 10 -10 15 -34 15
-21 0 -36 -6 -40 -15z"/>
<path d="M135 1320 c-8 -13 33 -29 57 -22 10 2 18 11 18 18 0 16 -65 20 -75 4z"/>
<path d="M142 1093 c2 -12 13 -18 33 -18 20 0 31 6 33 18 3 14 -4 17 -33 17
-29 0 -36 -3 -33 -17z"/>
<path d="M150 880 c-11 -7 -12 -12 -4 -20 16 -16 59 -8 59 10 0 18 -34 24 -55
10z"/>
<path d="M151 661 c-19 -12 -5 -31 24 -31 13 0 27 5 31 11 7 11 -12 29 -31 29
-5 0 -16 -4 -24 -9z"/>
</g>
</svg>
