<?xml version="1.0" standalone="no"?>
<!DOCTYPE svg PUBLIC "-//W3C//DTD SVG 20010904//EN"
 "http://www.w3.org/TR/2001/REC-SVG-20010904/DTD/svg10.dtd">
<svg version="1.0" xmlns="http://www.w3.org/2000/svg"
 width="300.000000pt" height="208.000000pt" viewBox="0 0 300.000000 208.000000"
 preserveAspectRatio="xMidYMid meet">
<metadata>
Created by potrace 1.10, written by Peter Selinger 2001-2011
</metadata>
<g transform="translate(0.000000,208.000000) scale(0.100000,-0.100000)"
fill="#000000" stroke="none">
<path d="M136 1989 l-26 -31 0 -884 c0 -951 -1 -927 50 -954 27 -14 1290 -14
1290 1 0 6 4 8 8 5 5 -3 9 0 9 7 0 7 6 32 13 57 13 45 13 45 20 15 9 -42 27
-73 49 -85 26 -13 1301 -14 1314 -1 12 12 17 1805 6 1838 -4 11 -18 31 -30 42
-23 21 -27 21 -654 21 l-632 0 -24 -26 c-16 -17 -25 -42 -30 -77 l-5 -52 -9
52 c-5 33 -16 62 -31 78 l-23 25 -635 0 -634 0 -26 -31z m1258 -5 c9 -3 13
-10 11 -15 -3 -4 -262 -9 -575 -9 -313 0 -576 -3 -585 -6 -9 -4 -22 -19 -30
-34 -8 -16 -25 -30 -40 -32 -25 -5 -26 -4 -23 36 2 32 8 43 28 53 19 10 160
13 612 13 322 0 593 -3 602 -6z m1409 -5 c14 -6 30 -22 36 -36 7 -16 11 -140
11 -379 l0 -354 -27 6 c-16 4 -31 10 -35 13 -4 4 -9 158 -10 343 l-3 336 -24
26 -24 26 -573 0 c-517 0 -619 4 -572 23 28 11 1197 7 1221 -4z m-1343 -116
l0 -68 30 0 30 0 0 68 0 67 610 0 610 0 0 -860 0 -860 -610 0 -610 0 0 65 0
65 -30 0 -30 0 0 -65 0 -65 -610 0 -610 0 0 860 0 860 610 0 610 0 0 -67z
m-1237 -135 l-1 -133 -34 0 -33 0 -3 133 -3 132 38 0 38 0 -2 -132z m-28 -194
c19 -5 21 -12 18 -103 -1 -53 1 -112 6 -129 9 -29 7 -33 -15 -38 -51 -13 -54
-5 -54 134 0 71 3 132 7 135 8 8 12 8 38 1z m2 -302 c8 -5 11 -139 11 -512 l0
-504 26 -23 27 -23 590 0 c339 0 589 -4 589 -9 0 -5 -7 -12 -16 -15 -13 -5
-1153 -8 -1227 -4 -47 3 -48 13 -48 564 -1 286 0 522 0 527 1 9 32 9 48 -1z
m2631 -166 l-3 -131 -28 0 -29 0 -1 132 c-2 125 -1 132 18 136 44 7 46 1 43
-137z m22 -172 c0 -11 -5 -14 -16 -10 -9 3 -20 6 -25 6 -6 0 -7 5 -4 10 10 16
45 12 45 -6z m-22 -156 l-3 -133 -28 0 -29 0 -1 133 -2 132 33 0 33 0 -3 -132z
m2 -328 c0 -142 -3 -149 -56 -136 -20 5 -24 10 -15 19 15 15 15 219 -1 235 -9
9 -3 12 30 12 l42 0 0 -130z m16 -202 c-9 -54 -10 -55 -54 -68 -40 -11 -1145
-12 -1196 -1 -16 3 -31 12 -34 19 -3 9 115 12 570 12 315 0 582 3 593 6 11 3
31 21 44 40 18 26 31 34 54 34 29 0 29 -1 23 -42z"/>
<path d="M1393 1794 c-9 -24 11 -38 35 -23 16 10 18 15 7 26 -18 17 -34 16
-42 -3z"/>
<path d="M1544 1796 c-9 -10 -7 -16 8 -25 24 -15 44 -1 35 23 -8 19 -28 20
-43 2z"/>
<path d="M1460 1728 c0 -47 1 -48 30 -48 29 0 30 1 30 48 0 47 -1 49 -30 49
-29 0 -30 -2 -30 -49z"/>
<path d="M608 1683 c133 -2 351 -2 485 0 133 1 24 2 -243 2 -267 0 -376 -1
-242 -2z"/>
<path d="M1393 1674 c-9 -24 11 -38 35 -23 16 10 18 15 7 26 -18 17 -34 16
-42 -3z"/>
<path d="M1542 1677 c-8 -10 -6 -16 10 -26 24 -15 44 -1 35 23 -8 19 -31 21
-45 3z"/>
<path d="M1888 1683 c133 -2 351 -2 485 0 133 1 24 2 -243 2 -267 0 -376 -1
-242 -2z"/>
<path d="M1460 1607 l0 -54 30 5 c29 4 30 6 30 53 0 48 -1 49 -30 49 -30 0
-30 -1 -30 -53z"/>
<path d="M608 1613 c133 -2 351 -2 485 0 133 1 24 2 -243 2 -267 0 -376 -1
-242 -2z"/>
<path d="M1888 1613 c133 -2 351 -2 485 0 133 1 24 2 -243 2 -267 0 -376 -1
-242 -2z"/>
<path d="M1393 1554 c-9 -24 11 -38 35 -23 16 10 18 15 7 26 -18 17 -34 16
-42 -3z"/>
<path d="M1544 1556 c-9 -10 -7 -16 8 -25 24 -15 44 -1 35 23 -8 19 -28 20
-43 2z"/>
<path d="M608 1543 c133 -2 351 -2 485 0 133 1 24 2 -243 2 -267 0 -376 -1
-242 -2z"/>
<path d="M1888 1543 c133 -2 351 -2 485 0 133 1 24 2 -243 2 -267 0 -376 -1
-242 -2z"/>
<path d="M1460 1488 c0 -47 1 -48 30 -48 29 0 30 1 30 48 0 47 -1 49 -30 49
-29 0 -30 -2 -30 -49z"/>
<path d="M608 1473 c133 -2 351 -2 485 0 133 1 24 2 -243 2 -267 0 -376 -1
-242 -2z"/>
<path d="M1888 1473 c133 -2 351 -2 485 0 133 1 24 2 -243 2 -267 0 -376 -1
-242 -2z"/>
<path d="M1393 1434 c-9 -24 11 -38 35 -23 16 10 18 15 7 26 -18 17 -34 16
-42 -3z"/>
<path d="M1542 1437 c-8 -10 -6 -16 10 -26 24 -15 44 -1 35 23 -8 19 -31 21
-45 3z"/>
<path d="M1460 1370 c0 -49 1 -50 30 -50 29 0 30 1 30 50 0 49 -1 50 -30 50
-29 0 -30 -1 -30 -50z"/>
<path d="M608 1403 c133 -2 351 -2 485 0 133 1 24 2 -243 2 -267 0 -376 -1
-242 -2z"/>
<path d="M1888 1403 c133 -2 351 -2 485 0 133 1 24 2 -243 2 -267 0 -376 -1
-242 -2z"/>
<path d="M422 1334 c8 -7 448 -7 456 0 3 3 -100 6 -228 6 -128 0 -231 -3 -228
-6z"/>
<path d="M900 1334 c30 -7 420 -9 420 -1 0 4 -98 6 -217 6 -120 -1 -211 -3
-203 -5z"/>
<path d="M1653 1334 c6 -7 379 -5 386 1 2 3 -85 5 -194 5 -109 0 -196 -3 -192
-6z"/>
<path d="M2153 1333 c53 -2 141 -2 195 0 53 1 9 3 -98 3 -107 0 -151 -2 -97
-3z"/>
<path d="M2525 1330 c39 -3 74 -3 80 2 5 4 -27 7 -70 6 l-80 -1 70 -7z"/>
<path d="M1390 1311 c0 -23 15 -35 31 -25 8 4 7 9 -2 15 -10 6 -11 9 -1 9 6 0
12 5 12 10 0 6 -9 10 -20 10 -13 0 -20 -7 -20 -19z"/>
<path d="M1542 1317 c-8 -10 -6 -16 10 -26 24 -15 44 -1 35 23 -8 19 -31 21
-45 3z"/>
<path d="M1460 1250 c0 -49 1 -50 30 -50 29 0 30 1 30 50 0 49 -1 50 -30 50
-29 0 -30 -1 -30 -50z"/>
<path d="M608 1253 c133 -2 351 -2 485 0 133 1 24 2 -243 2 -267 0 -376 -1
-242 -2z"/>
<path d="M1888 1253 c133 -2 351 -2 485 0 133 1 24 2 -243 2 -267 0 -376 -1
-242 -2z"/>
<path d="M1390 1191 c0 -25 18 -37 33 -22 8 8 8 11 -1 11 -7 0 -12 5 -12 11 0
5 5 7 10 4 6 -3 10 -1 10 4 0 6 -9 11 -20 11 -13 0 -20 -7 -20 -19z"/>
<path d="M1542 1197 c-8 -10 -6 -16 9 -25 24 -15 39 -8 39 19 0 22 -32 26 -48
6z"/>
<path d="M608 1183 c133 -2 351 -2 485 0 133 1 24 2 -243 2 -267 0 -376 -1
-242 -2z"/>
<path d="M1888 1183 c133 -2 351 -2 485 0 133 1 24 2 -243 2 -267 0 -376 -1
-242 -2z"/>
<path d="M1460 1130 c0 -49 1 -50 30 -50 29 0 30 1 30 50 0 49 -1 50 -30 50
-29 0 -30 -1 -30 -50z"/>
<path d="M608 1113 c133 -2 351 -2 485 0 133 1 24 2 -243 2 -267 0 -376 -1
-242 -2z"/>
<path d="M1888 1113 c133 -2 351 -2 485 0 133 1 24 2 -243 2 -267 0 -376 -1
-242 -2z"/>
<path d="M1390 1071 c0 -25 18 -37 33 -22 8 8 8 11 -1 11 -7 0 -12 5 -12 11 0
5 5 7 10 4 6 -3 10 -1 10 4 0 6 -9 11 -20 11 -13 0 -20 -7 -20 -19z"/>
<path d="M1542 1077 c-8 -10 -6 -16 9 -25 24 -15 39 -8 39 19 0 22 -32 26 -48
6z"/>
<path d="M1460 1010 c0 -49 1 -50 30 -50 29 0 30 1 30 50 0 49 -1 50 -30 50
-29 0 -30 -1 -30 -50z"/>
<path d="M608 1043 c133 -2 351 -2 485 0 133 1 24 2 -243 2 -267 0 -376 -1
-242 -2z"/>
<path d="M1888 1043 c133 -2 351 -2 485 0 133 1 24 2 -243 2 -267 0 -376 -1
-242 -2z"/>
<path d="M608 973 c133 -2 351 -2 485 0 133 1 24 2 -243 2 -267 0 -376 -1
-242 -2z"/>
<path d="M1888 973 c133 -2 351 -2 485 0 133 1 24 2 -243 2 -267 0 -376 -1
-242 -2z"/>
<path d="M1390 951 c0 -25 18 -37 33 -22 8 8 8 11 -1 11 -7 0 -12 5 -12 11 0
5 5 7 10 4 6 -3 10 -1 10 4 0 6 -9 11 -20 11 -13 0 -20 -7 -20 -19z"/>
<path d="M1540 960 c-13 -8 -12 -11 5 -24 25 -19 39 -15 43 12 4 24 -20 30
-48 12z"/>
<path d="M1460 890 c0 -49 1 -50 30 -50 29 0 30 1 30 50 0 49 -1 50 -30 50
-29 0 -30 -1 -30 -50z"/>
<path d="M608 903 c133 -2 351 -2 485 0 133 1 24 2 -243 2 -267 0 -376 -1
-242 -2z"/>
<path d="M1888 903 c133 -2 351 -2 485 0 133 1 24 2 -243 2 -267 0 -376 -1
-242 -2z"/>
<path d="M1390 831 c0 -23 19 -31 41 -18 14 9 15 13 4 24 -20 19 -45 16 -45
-6z"/>
<path d="M1540 840 c-13 -8 -12 -11 5 -23 24 -18 45 -11 45 14 0 21 -25 25
-50 9z"/>
<path d="M608 833 c133 -2 351 -2 485 0 133 1 24 2 -243 2 -267 0 -376 -1
-242 -2z"/>
<path d="M1888 833 c133 -2 351 -2 485 0 133 1 24 2 -243 2 -267 0 -376 -1
-242 -2z"/>
<path d="M1460 770 c0 -49 1 -50 30 -50 29 0 30 1 30 50 0 49 -1 50 -30 50
-29 0 -30 -1 -30 -50z"/>
<path d="M608 763 c133 -2 351 -2 485 0 133 1 24 2 -243 2 -267 0 -376 -1
-242 -2z"/>
<path d="M1888 763 c133 -2 351 -2 485 0 133 1 24 2 -243 2 -267 0 -376 -1
-242 -2z"/>
<path d="M1390 711 c0 -21 26 -36 35 -21 4 6 1 10 -4 10 -6 0 -11 5 -11 11 0
5 5 7 10 4 6 -3 10 -1 10 4 0 6 -9 11 -20 11 -13 0 -20 -7 -20 -19z"/>
<path d="M1540 720 c-13 -8 -12 -11 5 -23 24 -18 45 -11 45 14 0 21 -25 25
-50 9z"/>
<path d="M613 693 c130 -2 344 -2 475 0 130 1 23 2 -238 2 -261 0 -368 -1
-237 -2z"/>
<path d="M1460 650 c0 -49 1 -50 30 -50 29 0 30 1 30 50 0 49 -1 50 -30 50
-29 0 -30 -1 -30 -50z"/>
<path d="M1688 693 c23 -2 59 -2 80 0 20 2 1 4 -43 4 -44 0 -61 -2 -37 -4z"/>
<path d="M1873 693 c37 -2 96 -2 130 0 34 2 4 3 -68 3 -71 0 -99 -1 -62 -3z"/>
<path d="M2097 693 c18 -2 50 -2 70 0 21 2 7 4 -32 4 -38 0 -55 -2 -38 -4z"/>
<path d="M2273 693 c37 -2 96 -2 130 0 34 2 4 3 -68 3 -71 0 -99 -1 -62 -3z"/>
<path d="M2503 693 c20 -2 54 -2 75 0 20 2 3 4 -38 4 -41 0 -58 -2 -37 -4z"/>
<path d="M1390 591 c0 -10 7 -21 15 -24 18 -7 30 9 13 16 -10 4 -9 8 2 16 12
9 11 11 -7 11 -16 0 -23 -6 -23 -19z"/>
<path d="M1540 600 c-13 -8 -12 -11 5 -23 24 -18 45 -11 45 14 0 21 -25 25
-50 9z"/>
<path d="M1460 530 c0 -49 1 -50 30 -50 29 0 30 1 30 50 0 49 -1 50 -30 50
-29 0 -30 -1 -30 -50z"/>
<path d="M608 543 c133 -2 351 -2 485 0 133 1 24 2 -243 2 -267 0 -376 -1
-242 -2z"/>
<path d="M1888 543 c133 -2 351 -2 485 0 133 1 24 2 -243 2 -267 0 -376 -1
-242 -2z"/>
<path d="M1403 493 c-18 -6 -16 -40 2 -46 18 -7 30 9 13 16 -10 4 -10 8 1 15
15 11 3 22 -16 15z"/>
<path d="M1540 480 c-13 -9 -13 -11 0 -20 25 -17 50 -12 50 10 0 22 -25 27
-50 10z"/>
<path d="M608 473 c133 -2 351 -2 485 0 133 1 24 2 -243 2 -267 0 -376 -1
-242 -2z"/>
<path d="M1888 473 c133 -2 351 -2 485 0 133 1 24 2 -243 2 -267 0 -376 -1
-242 -2z"/>
<path d="M1460 410 c0 -49 1 -50 30 -50 29 0 30 1 30 50 0 49 -1 50 -30 50
-29 0 -30 -1 -30 -50z"/>
<path d="M608 403 c133 -2 351 -2 485 0 133 1 24 2 -243 2 -267 0 -376 -1
-242 -2z"/>
<path d="M1888 403 c133 -2 351 -2 485 0 133 1 24 2 -243 2 -267 0 -376 -1
-242 -2z"/>
<path d="M1390 350 c0 -14 7 -20 23 -20 18 0 19 2 7 10 -13 9 -13 11 0 20 12
8 11 10 -7 10 -16 0 -23 -6 -23 -20z"/>
<path d="M1540 360 c-13 -9 -13 -11 0 -20 25 -17 50 -12 50 10 0 22 -25 27
-50 10z"/>
<path d="M608 333 c133 -2 351 -2 485 0 133 1 24 2 -243 2 -267 0 -376 -1
-242 -2z"/>
<path d="M1888 333 c133 -2 351 -2 485 0 133 1 24 2 -243 2 -267 0 -376 -1
-242 -2z"/>
</g>
</svg>
